<?xml version="1.0" encoding="UTF-8" standalone="no"?>
<!DOCTYPE svg PUBLIC "-//W3C//DTD SVG 1.1//EN" "http://www.w3.org/Graphics/SVG/1.1/DTD/svg11.dtd">
<svg width="40" height="48" viewBox="0 0 30 36" version="1.1" xmlns="http://www.w3.org/2000/svg" xmlns:xlink="http://www.w3.org/1999/xlink" xml:space="preserve" xmlns:serif="http://www.serif.com/" style="fill-rule:evenodd;clip-rule:evenodd;stroke-linejoin:round;stroke-miterlimit:2;">
    <g transform="matrix(1,0,0,1,-180,-7)">
        <g id="_6" serif:id="6" transform="matrix(1,0,0,1,140.025,0)">
            <g>
                <g transform="matrix(1,0,0,1,0,1)">
                    <g style="filter:url(#_Effect1);">
                        <path d="M66.5,21.273C66.5,25.849 63.612,30.16 60.633,33.376C59.153,34.974 57.671,36.279 56.559,37.185C56.004,37.637 55.541,37.989 55.219,38.228C55.136,38.288 55.063,38.342 55,38.387C54.937,38.342 54.864,38.288 54.781,38.228C54.459,37.989 53.996,37.637 53.441,37.185C52.329,36.279 50.847,34.974 49.367,33.376C46.388,30.16 43.5,25.849 43.5,21.273C43.5,14.72 48.62,9.5 55,9.5C61.38,9.5 66.5,14.72 66.5,21.273Z" style="fill-opacity:0.25;"/>
                    </g>
                </g>
                <path d="M66.5,21.273C66.5,25.849 63.612,30.16 60.633,33.376C59.153,34.974 57.671,36.279 56.559,37.185C56.004,37.637 55.541,37.989 55.219,38.228C55.136,38.288 55.063,38.342 55,38.387C54.937,38.342 54.864,38.288 54.781,38.228C54.459,37.989 53.996,37.637 53.441,37.185C52.329,36.279 50.847,34.974 49.367,33.376C46.388,30.16 43.5,25.849 43.5,21.273C43.5,14.72 48.62,9.5 55,9.5C61.38,9.5 66.5,14.72 66.5,21.273Z" style="fill:rgb(60,212,176);"/>
                <path d="M66.5,21.273C66.5,25.849 63.613,30.16 60.633,33.376C59.153,34.974 57.671,36.279 56.559,37.185C56.004,37.637 55.541,37.989 55.219,38.228C55.136,38.288 55.063,38.342 55,38.387C54.937,38.342 54.864,38.288 54.781,38.228C54.459,37.989 53.996,37.637 53.441,37.185C52.329,36.279 50.847,34.974 49.367,33.376C46.387,30.16 43.5,25.849 43.5,21.273C43.5,14.72 48.62,9.5 55,9.5C61.38,9.5 66.5,14.72 66.5,21.273ZM55,37.141C54.737,36.941 54.424,36.696 54.072,36.409L54.072,36.409C52.988,35.526 51.543,34.254 50.1,32.697C47.282,29.654 44.5,25.601 44.5,21.273C44.5,15.283 49.168,10.5 55,10.5C60.832,10.5 65.5,15.283 65.5,21.273C65.5,25.601 62.718,29.654 59.9,32.697C58.457,34.254 57.012,35.526 55.928,36.409L55.928,36.409C55.576,36.696 55.263,36.941 55,37.141Z" style="fill:white;"/>
            </g>
            <g transform="matrix(1,0,0,1,-1.92605,3.02915)">
                <g transform="matrix(14,0,0,14,52.9544,23.9504)">
                    <path d="M0.431,-0.718L0.431,-0.602L0.417,-0.602C0.354,-0.601 0.302,-0.584 0.263,-0.552C0.225,-0.52 0.201,-0.475 0.193,-0.418C0.231,-0.456 0.279,-0.476 0.336,-0.476C0.398,-0.476 0.447,-0.453 0.484,-0.409C0.52,-0.365 0.539,-0.307 0.539,-0.234C0.539,-0.188 0.529,-0.146 0.509,-0.109C0.489,-0.071 0.46,-0.042 0.424,-0.021C0.387,-0.001 0.346,0.01 0.299,0.01C0.224,0.01 0.164,-0.016 0.118,-0.068C0.072,-0.12 0.049,-0.19 0.049,-0.277L0.049,-0.328C0.049,-0.405 0.063,-0.473 0.093,-0.532C0.122,-0.591 0.163,-0.637 0.218,-0.669C0.273,-0.702 0.336,-0.718 0.408,-0.718L0.431,-0.718ZM0.293,-0.362C0.271,-0.362 0.25,-0.356 0.231,-0.344C0.213,-0.333 0.199,-0.317 0.19,-0.297L0.19,-0.254C0.19,-0.207 0.2,-0.17 0.218,-0.144C0.237,-0.117 0.263,-0.104 0.296,-0.104C0.327,-0.104 0.351,-0.116 0.37,-0.14C0.389,-0.164 0.398,-0.195 0.398,-0.233C0.398,-0.272 0.389,-0.303 0.37,-0.327C0.351,-0.35 0.325,-0.362 0.293,-0.362Z" style="fill:white;fill-rule:nonzero;"/>
                </g>
            </g>
        </g>
    </g>
    <defs>
        <filter id="_Effect1" filterUnits="userSpaceOnUse" x="37.5" y="3.5" width="35" height="40.8874">
            <feGaussianBlur in="SourceGraphic" stdDeviation="1"/>
        </filter>
    </defs>
</svg>
